<?xml version="1.0" standalone="no"?><!DOCTYPE svg PUBLIC "-//W3C//DTD SVG 1.1//EN" "http://www.w3.org/Graphics/SVG/1.1/DTD/svg11.dtd"><svg t="1660915774905" class="icon" viewBox="0 0 1024 1024" version="1.1" xmlns="http://www.w3.org/2000/svg" p-id="1153" xmlns:xlink="http://www.w3.org/1999/xlink" width="200" height="200"><defs><style type="text/css"></style></defs><path d="M877.625 596.375C877.625 565.296875 852.453125 540.125 821.375 540.125 758.9375 540.125 658.8125 540.125 596.375 540.125 565.296875 540.125 540.125 565.296875 540.125 596.375 540.125 658.8125 540.125 758.9375 540.125 821.375 540.125 852.453125 565.296875 877.625 596.375 877.625 658.8125 877.625 758.9375 877.625 821.375 877.625 852.453125 877.625 877.625 852.453125 877.625 821.375 877.625 758.9375 877.625 658.8125 877.625 596.375ZM483.875 596.375C483.875 565.296875 458.703125 540.125 427.625 540.125 365.1875 540.125 265.0625 540.125 202.625 540.125 171.546875 540.125 146.375 565.296875 146.375 596.375 146.375 658.8125 146.375 758.9375 146.375 821.375 146.375 852.453125 171.546875 877.625 202.625 877.625 265.0625 877.625 365.1875 877.625 427.625 877.625 458.703125 877.625 483.875 852.453125 483.875 821.375 483.875 758.9375 483.875 658.8125 483.875 596.375ZM483.875 202.625C483.875 171.546875 458.703125 146.375 427.625 146.375 365.1875 146.375 265.0625 146.375 202.625 146.375 171.546875 146.375 146.375 171.546875 146.375 202.625 146.375 265.0625 146.375 365.1875 146.375 427.625 146.375 458.703125 171.546875 483.875 202.625 483.875 265.0625 483.875 365.1875 483.875 427.625 483.875 458.703125 483.875 483.875 458.703125 483.875 427.625 483.875 365.1875 483.875 265.0625 483.875 202.625ZM877.625 202.625C877.625 171.546875 852.453125 146.375 821.375 146.375 758.9375 146.375 658.8125 146.375 596.375 146.375 565.296875 146.375 540.125 171.546875 540.125 202.625 540.125 265.0625 540.125 365.1875 540.125 427.625 540.125 458.703125 565.296875 483.875 596.375 483.875 658.8125 483.875 758.9375 483.875 821.375 483.875 852.453125 483.875 877.625 458.703125 877.625 427.625 877.625 365.1875 877.625 265.0625 877.625 202.625Z" p-id="1154" fill="#cdcdcd"></path></svg>