<?xml version="1.0" standalone="no"?><!DOCTYPE svg PUBLIC "-//W3C//DTD SVG 1.1//EN" "http://www.w3.org/Graphics/SVG/1.1/DTD/svg11.dtd"><svg t="1660915866213" class="icon" viewBox="0 0 1024 1024" version="1.1" xmlns="http://www.w3.org/2000/svg" p-id="2589" xmlns:xlink="http://www.w3.org/1999/xlink" width="200" height="200"><defs><style type="text/css"></style></defs><path d="M519.09573894 534.6629221c108.46344162 0 196.79815331-88.33471242 196.79815404-196.79815404S627.55918057 141.21142578 519.09573894 141.21142578 322.29758563 229.5461382 322.29758563 338.00957909s88.33471242 196.65334228 196.79815331 196.65334301zM823.48846835 702.6436858c-14.04666756-30.12068902-34.03058572-57.34515716-59.37251176-80.94935067-50.97347344-47.35319808-119.17945593-74.57766695-186.95100527-74.57766693h-115.9936137c-67.9163604 0-135.97753185 27.22446887-186.95100529 74.57766693-25.34192531 23.60419352-45.32584419 50.82866238-59.37251101 80.94935067-14.77072206 31.71360975-22.30089485 65.02014026-22.30089486 99.34034881 0 44.60178897 36.20275065 80.80453961 80.80453961 80.80453961h491.63335677c44.60178897 0 80.80453961-36.20275065 80.80454036-80.80453961-0.14481104-34.32020781-7.53017207-67.77154937-22.30089485-99.34034881z" fill="" p-id="2590"></path></svg>